<svg width="83" height="121" viewBox="0 0 83 121" fill="none" xmlns="http://www.w3.org/2000/svg">
<mask id="mask0_4325_409" style="mask-type:alpha" maskUnits="userSpaceOnUse" x="0" y="0" width="83" height="121">
<rect width="83" height="121" rx="4" fill="#E4FBFF"/>
</mask>
<g mask="url(#mask0_4325_409)">
<path fill-rule="evenodd" clip-rule="evenodd" d="M69.8103 53.406C56.6974 37.9948 36.6434 33.52 25.0183 43.4113L45.4643 67.4411C32.4891 55.0743 14.8037 52.1024 4.17044 61.1498L24.6088 85.1706C11.6344 72.8106 -6.04564 69.8419 -16.6767 78.8874L30.8091 134.697C41.4402 125.651 41.3406 107.724 31.2175 92.9377L51.6562 116.959C62.2895 107.912 62.1877 89.9784 52.058 75.1906L72.5041 99.2204C84.1292 89.3291 82.9231 68.8173 69.8103 53.406Z" fill="#A1EDFF"/>
<mask id="mask1_4325_409" style="mask-type:alpha" maskUnits="userSpaceOnUse" x="-17" y="38" width="98" height="97">
<path fill-rule="evenodd" clip-rule="evenodd" d="M69.8103 53.4061C56.6974 37.9948 36.6434 33.52 25.0183 43.4114L45.4643 67.4411C32.4891 55.0744 14.8037 52.1024 4.17044 61.1499L24.6088 85.1707C11.6344 72.8106 -6.04564 69.8419 -16.6767 78.8874L30.8091 134.697C41.4402 125.651 41.3406 107.724 31.2175 92.9378L51.6562 116.959C62.2895 107.912 62.1877 89.9785 52.058 75.1907L72.5041 99.2205C84.1292 89.3292 82.9231 68.8174 69.8103 53.4061Z" fill="#271A58"/>
</mask>
<g mask="url(#mask1_4325_409)">
<circle cx="55.8614" cy="53.6419" r="25.0281" transform="rotate(-60.3933 55.8614 53.6419)" fill="#75E5FF"/>
</g>
</g>
</svg>
